<svg xmlns="http://www.w3.org/2000/svg" enable-background="new 0 0 68 68" viewBox="0 0 68 68"><path fill="#FFF" d="M45.7029,2.0001H22.2971c-4.7101,0-8.5328,3.8142-8.5328,8.5328V39.212
			c0,7.0738,5.7341,12.7993,12.7993,12.7993h14.8728c7.0652,0,12.7993-5.7255,12.7993-12.7993V10.5329
			C54.2357,5.8143,50.413,2.0001,45.7029,2.0001z"/><path fill="#DEE1E6" d="M54.2347,10.5318v28.68c0,7.07-5.73,12.8-12.8,12.8h-14.87c-5.03,0-9.38-2.9-11.47-7.12
			c22.22-4.13,25.56-31.91,26-42.89h4.61C50.4147,2.0018,54.2347,5.8118,54.2347,10.5318z"/><path fill="#FBC41A" d="M31.2808 40.3254v5.75c0 .3592-.2912.6504-.6504.6504H26.578c-3.6495 0-6.6484-2.7679-7.0135-6.3204-.0399-.3884.2596-.7304.65-.7304h10.4158C30.9896 39.6749 31.2808 39.9662 31.2808 40.3254zM36.7192 40.3254v5.75c0 .3592.2912.6504.6504.6504h4.0523c3.6495 0 6.6484-2.7679 7.0135-6.3204.0399-.3884-.2596-.7304-.65-.7304H37.3697C37.0104 39.6749 36.7192 39.9662 36.7192 40.3254z"/><rect width="5.973" height="13.989" x="31.014" y="52.011" fill="#FFF"/><path fill="#4DABF4" d="M19.5729,11.1656v19.5021c0,1.1383,0.9227,2.061,2.061,2.061h24.7322c1.1383,0,2.061-0.9228,2.061-2.061
			V11.1656c0-1.1383-0.9227-2.061-2.061-2.061H21.6339C20.4956,9.1046,19.5729,10.0273,19.5729,11.1656z"/><path fill="#1D7BD5" d="M48.4247,11.1618v19.51c0,1.13-0.92,2.06-2.06,2.06h-13.61c4.79-7.33,6.87-16.49,7.76-23.63h5.85
			C47.5046,9.1018,48.4247,10.0318,48.4247,11.1618z"/><path d="M45.7029,1H22.2971c-5.2563,0-9.5327,4.2764-9.5327,9.5327v28.6792c0,7.6089,6.1904,13.7993,13.7993,13.7993h3.4497V66
			c0,0.5522,0.4478,1,1,1h5.9731c0.5522,0,1-0.4478,1-1V53.0112h3.4497c7.6089,0,13.7993-6.1904,13.7993-13.7993V10.5327
			C55.2356,5.2764,50.9592,1,45.7029,1z M35.9866,65h-3.9731V53.0112h3.9731V65z M53.2356,39.2119
			c0,6.5063-5.293,11.7993-11.7993,11.7993c-10.2871,0-7.1683,0-14.8726,0c-6.5063,0-11.7993-5.293-11.7993-11.7993V10.5327
			C14.7644,6.3794,18.1438,3,22.2971,3h23.4058c4.1533,0,7.5327,3.3794,7.5327,7.5327V39.2119z"/><path d="M30.6301 38.6748H20.2146c-.4658 0-.9121.1987-1.2246.5449-.3154.3496-.4683.8188-.4199 1.2876.4224 4.1152 3.8652 7.2183 8.0078 7.2183h4.0522c.9102 0 1.6509-.7402 1.6509-1.6504v-5.75C32.281 39.415 31.5403 38.6748 30.6301 38.6748zM30.281 45.7256h-3.7031c-2.9873 0-5.4902-2.146-5.9688-5.0508h9.6719V45.7256zM47.7854 38.6748H37.3699c-.9102 0-1.6509.7402-1.6509 1.6504v5.75c0 .9102.7407 1.6504 1.6509 1.6504h4.0522c4.1426 0 7.5854-3.103 8.0078-7.2178.0483-.4692-.1045-.9385-.4199-1.2881C48.6975 38.8735 48.2512 38.6748 47.7854 38.6748zM41.4221 45.7256H37.719v-5.0508h9.6719C46.9128 43.5796 44.4099 45.7256 41.4221 45.7256zM21.634 33.729H46.366c1.688 0 3.061-1.373 3.061-3.061V11.1655c0-1.688-1.373-3.061-3.061-3.061H21.634c-1.688 0-3.061 1.373-3.061 3.061V30.668C18.573 32.356 19.946 33.729 21.634 33.729zM20.573 11.1655c0-.585.4761-1.061 1.061-1.061H46.366c.585 0 1.061.4761 1.061 1.061V30.668c0 .585-.4761 1.061-1.061 1.061H21.634c-.585 0-1.061-.4761-1.061-1.061V11.1655z"/></svg>