<svg xmlns="http://www.w3.org/2000/svg" xmlns:xlink="http://www.w3.org/1999/xlink" viewBox="0 0 64 64"><path fill="#e4f3ff" d="M9.16 8.57h31.97v46.87H9.16z"/><path fill="#c3dafd" d="M25.14 8.57h15.99v46.87H25.14z"/><path fill="#ff5c5c" d="M42.13 43.06h-8.54c-3.41 0-6.18 2.77-6.18 6.18s2.77 6.18 6.18 6.18h8.54V43.06zm0 0"/><path fill="#ff5c5c" d="M41.72 49.25H27.41c0 3.41 2.77 6.18 6.18 6.18h8.13v-6.18zM29.94 18.87h-3.43v-3.44h-2.75v3.44h-3.44v2.75h3.44v3.43h2.75v-3.43h3.43v-2.75zm0 0"/><path fill="#457899" d="M15.35 36.5H25.4v2.75H15.35zM15.35 31.01h14.63v2.75H15.35z"/><path fill="#365c75" d="M25.13 31.01h4.84v2.75h-4.84z"/><path fill="#457899" d="M15.35 42h5.47v2.75h-5.47z"/><defs><path id="a" d="M9.16 8.56h46.88v46.88H9.16z"/></defs><clipPath id="b"><use overflow="visible" xlink:href="#a"/></clipPath><path fill="#ff3838" d="M29.94 18.87h-3.43v-3.44h-1.37v9.62h1.37v-3.43h3.43v-2.75zm0 0" clip-path="url(#b)"/><path fill="#fcf7e2" d="M54 28.62h-1.94v-1.94c-3.94-2.99-9.61-2.69-13.21.9-3.6 3.6-3.9 9.26-.91 13.2h1.94v1.94c3.94 2.99 9.61 2.69 13.2-.91 3.61-3.58 3.91-9.25.92-13.19zm0 0" clip-path="url(#b)"/><path fill="#fcf7e2" d="M54 28.62h-1.94v-1.94a10.049 10.049 0 0 0-6.08-2.04v20.13c2.58 0 5.16-.98 7.12-2.94 3.59-3.6 3.89-9.27.9-13.21zm0 0" clip-path="url(#b)"/><path fill="#fbf59a" d="M52.06 26.68 37.95 40.79c.56.73 1.21 1.39 1.94 1.94L54 28.62c-.56-.73-1.21-1.39-1.94-1.94zm0 0"/><path fill="#f4d853" d="M45.97 36.65 54 28.62c-.56-.73-1.21-1.39-1.94-1.94l-6.08 6.08v3.89zm0 0"/><path fill="#e4f3ff" d="M45.96 43.06h-6.18v12.37h6.18a6.184 6.184 0 0 0 0-12.37zm0 0"/><path fill="#c3dafd" d="M39.77 55.43h6.18c3.41 0 6.18-2.77 6.18-6.18H39.77v6.18zm0 0"/></svg>