<svg xmlns="http://www.w3.org/2000/svg" width="512" height="512" fill="none" viewBox="0 0 512 512"><path fill="#D0D0D0" d="M432 452V124C432 106.327 417.673 92 400 92H336H176H112C94.3269 92 80 106.327 80 124V452C80 469.673 94.3269 484 112 484H400C417.673 484 432 469.673 432 452Z"/><path fill="#fff" d="M412 448V124C412 106.327 397.673 92 380 92H318.545H169.455H112C94.3269 92 80 106.327 80 124V432C80 449.673 94.3269 464 112 464H396C404.837 464 412 456.837 412 448Z"/><path fill="#1A68DF" d="M176 84C176 75.1634 183.163 68 192 68H320C328.837 68 336 75.1634 336 84V100C336 108.837 328.837 116 320 116H192C183.163 116 176 108.837 176 100V84Z"/><path fill="#0094FF" fill-rule="evenodd" d="M192 68C183.163 68 176 75.1634 176 84V100C176 108.837 183.163 116 192 116H304C308.418 116 312 112.418 312 108V76C312 71.5817 308.418 68 304 68H192Z" clip-rule="evenodd"/><path fill="#343434" fill-rule="evenodd" d="M256 44C247.163 44 240 51.1634 240 60V68H224V60C224 42.3269 238.327 28 256 28C273.673 28 288 42.3269 288 60V68H272V60C272 51.1634 264.837 44 256 44Z" clip-rule="evenodd"/><path fill="#FF3232" fill-rule="evenodd" d="M272 172C272 167.582 268.418 164 264 164H248C243.582 164 240 167.582 240 172V204H208C203.582 204 200 207.582 200 212V228C200 232.418 203.582 236 208 236H240V268C240 272.418 243.582 276 248 276H264C268.418 276 272 272.418 272 268V236H304C308.418 236 312 232.418 312 228V212C312 207.582 308.418 204 304 204H272V172Z" clip-rule="evenodd"/><path fill="#343434" fill-rule="evenodd" d="M136 332C136 327.582 139.582 324 144 324H368C372.418 324 376 327.582 376 332 376 336.418 372.418 340 368 340H144C139.582 340 136 336.418 136 332zM199.503 356.016C202.349 355.838 205.075 357.19 206.656 359.562L220.281 380H232C236.418 380 240 383.582 240 388 240 392.418 236.418 396 232 396H216C213.325 396 210.827 394.663 209.344 392.438L200.99 379.908 183.155 415.578C181.88 418.128 179.343 419.807 176.497 419.985 173.651 420.162 170.925 418.81 169.344 416.438L155.719 396H144C139.582 396 136 392.418 136 388 136 383.582 139.582 380 144 380H160C162.675 380 165.173 381.337 166.656 383.562L175.01 396.092 192.845 360.422C194.12 357.872 196.657 356.193 199.503 356.016zM256 388C256 383.582 259.582 380 264 380H368C372.418 380 376 383.582 376 388 376 392.418 372.418 396 368 396H264C259.582 396 256 392.418 256 388z" clip-rule="evenodd"/></svg>