<svg xmlns="http://www.w3.org/2000/svg" data-name="Layer 1" viewBox="0 0 24 24"><circle cx="4.5" cy="4.5" r="1" fill="#e23342"/><path fill="#54bbe8" d="M14.5,16.05V2.5a2,2,0,0,0-2-2h0a2,2,0,0,0-2,2V16.05a4,4,0,1,0,4,0Z"/><path fill="#fff" d="M10.62,20.5a4,4,0,0,1,1.88-4.45V2.5a2,2,0,0,1,1-1.72,2,2,0,0,0-1-.28,2,2,0,0,0-2,2V16.05a4,4,0,0,0,1,7.33,4.09,4.09,0,0,0,1.95,0A4,4,0,0,1,10.62,20.5Z"/><path fill="none" d="M8.5,11.5h-1a2,2,0,0,1-2-2v-1a2,2,0,0,1,2-2h1"/><circle cx="12.5" cy="19.5" r="2" fill="#e23342"/><path d="M6,4.5A1.5,1.5,0,1,0,4.5,6,1.5,1.5,0,0,0,6,4.5ZM4.5,5A.5.5,0,1,1,5,4.5.5.5,0,0,1,4.5,5Zm12,1h2a.5.5,0,0,0,0-1h-2a.5.5,0,0,0,0,1Zm0-2h4a.5.5,0,0,0,0-1h-4a.5.5,0,0,0,0,1ZM9,11.5a.5.5,0,0,0-.5-.5h-1A1.5,1.5,0,0,1,6,9.5v-1A1.5,1.5,0,0,1,7.5,7h1a.5.5,0,0,0,0-1h-1A2.5,2.5,0,0,0,5,8.5v1A2.5,2.5,0,0,0,7.5,12h1A.5.5,0,0,0,9,11.5ZM16.5,10h2a.5.5,0,0,0,0-1h-2a.5.5,0,0,0,0,1Zm4,1h-4a.5.5,0,0,0,0,1h4a.5.5,0,0,0,0-1Zm0-4h-4a.5.5,0,0,0,0,1h4a.5.5,0,0,0,0-1ZM13,17.05V3.5a.5.5,0,0,0-1,0V17.05a2.5,2.5,0,1,0,1,0ZM12.5,21A1.5,1.5,0,1,1,14,19.5,1.5,1.5,0,0,1,12.5,21ZM15,15.78V2.5a2.5,2.5,0,0,0-5,0V15.78a4.5,4.5,0,0,0-1.86,4.84,4.45,4.45,0,0,0,3.29,3.25,4.71,4.71,0,0,0,1.07.12A4.49,4.49,0,0,0,15,15.78Zm-.33,6.46a3.54,3.54,0,0,1-3,.66,3.49,3.49,0,0,1-.9-6.42.5.5,0,0,0,.25-.43V2.5a1.5,1.5,0,0,1,3,0V16.05a.5.5,0,0,0,.25.43,3.48,3.48,0,0,1,.43,5.76Z"/></svg>