<svg xmlns="http://www.w3.org/2000/svg" viewBox="0 0 512 512"><path fill="#354b87" d="M350.3 10.5H161.7C78 10.5 10 78.5 10 162.2v240c0 55.3 45 100.3 100.3 100.3h291.4c55.3 0 100.3-45 100.3-100.3v-240c0-83.7-68-151.7-151.7-151.7zM487 402.2c0 47-38.3 85.3-85.3 85.3H110.3c-47 0-85.3-38.3-85.3-85.3v-240C25 86.8 86.3 25.5 161.7 25.5h188.7c75.4 0 136.7 61.3 136.7 136.7v240z"/><path fill="#354b87" d="M255.5 316.8c4.1 0 7.5-3.4 7.5-7.5V215c0-4.1-3.4-7.5-7.5-7.5s-7.5 3.4-7.5 7.5v94.3c0 4.1 3.4 7.5 7.5 7.5zm.5 20.1c-4.1 0-7.5 3.4-7.5 7.5v113c0 4.1 3.4 7.5 7.5 7.5s7.5-3.4 7.5-7.5v-113c0-4.1-3.4-7.5-7.5-7.5z"/><path fill="#5c77ff" d="m267.9 45.6-11.2 34.7-12.3-34.7c1.2-.2 2.3-.3 3.5-.4 2.7-.2 5.4-.4 8.1-.4 2.9 0 5.7.1 8.4.4 1.2.2 2.4.3 3.5.4zM256 128.2c-3.4 0-6.2-2.8-6.2-6.2v-18c0-3.4 2.8-6.2 6.2-6.2 3.4 0 6.2 2.8 6.2 6.2v18c0 3.4-2.8 6.2-6.2 6.2z"/><path fill="#485eff" d="M199.1 143.5c-1.8 0-3.7-.8-4.9-2.4l-6.4-8.2c-2.1-2.7-1.6-6.6 1.1-8.7 2.7-2.1 6.6-1.6 8.7 1.1l6.4 8.2c2.1 2.7 1.6 6.6-1.1 8.7-1.1.8-2.4 1.3-3.8 1.3z" opacity=".3"/><path fill="#b3c3ff" d="M216.5 135.3c-2.3 0-4.6-1.3-5.6-3.6l-4.8-10.5c-1.4-3.1-.1-6.8 3-8.2 3.1-1.4 6.8-.1 8.2 3l4.8 10.5c1.4 3.1.1 6.8-3 8.2-.9.4-1.8.6-2.6.6z"/><path fill="#859fff" d="M235.5 130c-2.8 0-5.4-2-6-4.9l-3-14.1c-.7-3.3 1.4-6.6 4.7-7.3 3.3-.7 6.6 1.4 7.3 4.7l3 14.1c.7 3.3-1.4 6.6-4.7 7.3-.4.2-.8.2-1.3.2z"/><path fill="#485eff" d="M312.9 143.5c-1.3 0-2.7-.4-3.8-1.3-2.7-2.1-3.2-6-1.1-8.7l6.4-8.2c2.1-2.7 6-3.2 8.7-1.1 2.7 2.1 3.2 6 1.1 8.7l-6.4 8.2c-1.3 1.5-3.1 2.4-4.9 2.4z" opacity=".3"/><path fill="#b3c3ff" d="M295.5 135.3c-.9 0-1.7-.2-2.6-.6-3.1-1.4-4.5-5.1-3-8.2l4.8-10.5c1.4-3.1 5.1-4.5 8.2-3 3.1 1.4 4.5 5.1 3 8.2l-4.8 10.5c-1 2.2-3.2 3.6-5.6 3.6z"/><path fill="#859fff" d="M276.5 130c-.4 0-.9 0-1.3-.1-3.3-.7-5.4-4-4.7-7.3l3-14.1c.7-3.3 4-5.4 7.3-4.7 3.3.7 5.4 4 4.7 7.3l-3 14.1c-.6 2.8-3.2 4.8-6 4.8z"/><path fill="#354b87" d="M268.7 39.5c-1.2-.2-2.5-.3-3.7-.4-5.7-.6-11.9-.6-17.7 0-1.3.1-2.5.3-3.8.4-47 6.1-82.5 46.6-82.5 94.1 0 19.6 5.9 38.5 17.2 54.5 1 1.5 2.6 2.4 4.4 2.6h.6c1.6 0 3.1-.6 4.2-1.7 18.8-17.5 43.2-27.1 68.9-27.1 25.4 0 49.7 9.5 68.4 26.7 1.3 1.2 3.1 1.8 4.9 1.6 1.8-.2 3.4-1.2 4.4-2.6 11-15.9 16.9-34.6 16.9-54 0-47.3-35.3-87.8-82.2-94.1zm58.9 135.3c-20.1-16.3-45.2-25.1-71.2-25.1-26.3 0-51.5 9-71.8 25.6-7.4-12.6-11.2-26.9-11.2-41.6 0-41.3 30.9-76.6 71.8-81.9 1.1-.1 2.2-.3 3.3-.4 2.5-.2 5-.3 7.5-.3 2.7 0 5.3.1 7.9.4 1.1.1 2.2.2 3.2.4 40.8 5.5 71.5 40.7 71.5 81.9 0 14.4-3.8 28.5-11 41z"/><path fill="#485eff" d="M127.7 464.9c-24.5 0-45.5-14.9-54.4-36.2-4.7-11.2-3.9-24 1.7-34.8 9.2-17.5 12.4-37.4 9.2-56.9l-14.1-86.7c-4-24.5 7.6-49.3 29.4-61.1 8.4-4.5 17.9-7.1 28.1-7.1 7.5 0 14.7 1.4 21.4 4 28.6 11.1 39.6 45.6 23.9 72.1-6 10.2-11.8 24.9-11.8 43.8 0 48.7 8.5 75.8 15.7 90 10.2 20.2 5.8 45-11.7 59.4-10 8.4-23.1 13.5-37.4 13.5zm256.6 0c24.5 0 45.5-14.9 54.4-36.2 4.7-11.2 3.9-24-1.7-34.8-9.2-17.5-12.4-37.4-9.2-56.9l14.1-86.7c4-24.5-7.6-49.3-29.4-61.1-8.4-4.5-17.9-7.1-28.1-7.1-7.5 0-14.7 1.4-21.4 4-28.6 11.1-39.6 45.6-23.9 72.1 6 10.2 11.8 24.9 11.8 43.8 0 48.7-8.5 75.8-15.7 90-10.2 20.2-5.8 45 11.7 59.4 10 8.4 23.1 13.5 37.4 13.5z" opacity=".14"/></svg>